<svg width="61" height="61" viewBox="0 0 61 61" fill="none" xmlns="http://www.w3.org/2000/svg">
<path d="M40.3591 12.3018H9.85913V17.3445H40.3591V12.3018Z" fill="#4694DC"/>
<path d="M40.3591 22.3872H9.85913V27.43H40.3591V22.3872Z" fill="#4694DC"/>
<path d="M9.85913 32.4727H30.1925V37.5154H9.85913V32.4727Z" fill="#4694DC"/>
<path fill-rule="evenodd" clip-rule="evenodd" d="M34.9658 32.1651C33.69 33.4262 32.9055 35.0945 32.751 36.8745C32.5966 38.6545 33.0822 40.4312 34.1219 41.89C35.1616 43.3488 36.6883 44.3954 38.4315 44.8444C40.1746 45.2935 42.0217 45.1159 43.6456 44.3433L47.547 48.2111L51.1409 44.6459L47.2395 40.7756C48.0127 39.1654 48.1878 37.3359 47.7336 35.6102C47.2795 33.8844 46.2255 32.3733 44.7575 31.3434C43.2895 30.3136 41.502 29.8313 39.7105 29.9816C37.9189 30.132 36.2385 30.9053 34.9658 32.1651ZM38.5622 39.298C38.7984 39.5321 39.0787 39.7178 39.3872 39.8444C39.6956 39.9711 40.0262 40.0362 40.3601 40.0361C40.6939 40.0359 41.0245 39.9706 41.3329 39.8437C41.6412 39.7169 41.9214 39.531 42.1574 39.2968C42.3934 39.0625 42.5805 38.7844 42.7082 38.4784C42.8358 38.1724 42.9015 37.8445 42.9014 37.5133C42.9012 37.1821 42.8354 36.8542 42.7075 36.5483C42.5796 36.2424 42.3923 35.9644 42.1561 35.7303C41.6792 35.2575 41.0325 34.9921 40.3583 34.9923C39.684 34.9925 39.0375 35.2585 38.5609 35.7316C38.0844 36.2047 37.8168 36.8462 37.817 37.5151C37.8172 38.1839 38.0853 38.8253 38.5622 39.298Z" fill="#4694DC"/>
</svg>
