<svg width="50" height="50" viewBox="0 0 50 50" fill="none" xmlns="http://www.w3.org/2000/svg">
<path fill-rule="evenodd" clip-rule="evenodd" d="M25 14.4668C22.2373 14.4668 19.5878 15.5555 17.6343 17.4934C15.6808 19.4313 14.5833 22.0597 14.5833 24.8003C14.5833 27.5409 15.6808 30.1692 17.6343 32.1071C19.5878 34.045 22.2373 35.1337 25 35.1337C27.7627 35.1337 30.4122 34.045 32.3657 32.1071C34.3192 30.1692 35.4167 27.5409 35.4167 24.8003C35.4167 22.0597 34.3192 19.4313 32.3657 17.4934C30.4122 15.5555 27.7627 14.4668 25 14.4668ZM18.75 24.8003C18.75 26.4446 19.4085 28.0217 20.5806 29.1844C21.7527 30.3471 23.3424 31.0004 25 31.0004C26.6576 31.0004 28.2473 30.3471 29.4194 29.1844C30.5915 28.0217 31.25 26.4446 31.25 24.8003C31.25 23.1559 30.5915 21.5789 29.4194 20.4162C28.2473 19.2534 26.6576 18.6002 25 18.6002C23.3424 18.6002 21.7527 19.2534 20.5806 20.4162C19.4085 21.5789 18.75 23.1559 18.75 24.8003Z" fill="#4694DC"/>
<path d="M37.5 10.3334C36.9475 10.3334 36.4176 10.5512 36.0269 10.9388C35.6362 11.3263 35.4167 11.852 35.4167 12.4001C35.4167 12.9482 35.6362 13.4739 36.0269 13.8615C36.4176 14.2491 36.9475 14.4668 37.5 14.4668C38.0526 14.4668 38.5825 14.2491 38.9732 13.8615C39.3639 13.4739 39.5834 12.9482 39.5834 12.4001C39.5834 11.852 39.3639 11.3263 38.9732 10.9388C38.5825 10.5512 38.0526 10.3334 37.5 10.3334Z" fill="#4694DC"/>
<path fill-rule="evenodd" clip-rule="evenodd" d="M10.4167 2.06668C8.20654 2.06668 6.08692 2.93764 4.52412 4.48796C2.96132 6.03828 2.08334 8.14096 2.08334 10.3334V39.2671C2.08334 41.4596 2.96132 43.5623 4.52412 45.1126C6.08692 46.6629 8.20654 47.5339 10.4167 47.5339H39.5833C41.7935 47.5339 43.9131 46.6629 45.4759 45.1126C47.0387 43.5623 47.9167 41.4596 47.9167 39.2671V10.3334C47.9167 8.14096 47.0387 6.03828 45.4759 4.48796C43.9131 2.93764 41.7935 2.06668 39.5833 2.06668H10.4167ZM39.5833 6.20006H10.4167C9.31161 6.20006 8.2518 6.63554 7.4704 7.4107C6.689 8.18586 6.25001 9.23721 6.25001 10.3334V39.2671C6.25001 40.3634 6.689 41.4147 7.4704 42.1899C8.2518 42.965 9.31161 43.4005 10.4167 43.4005H39.5833C40.6884 43.4005 41.7482 42.965 42.5296 42.1899C43.311 41.4147 43.75 40.3634 43.75 39.2671V10.3334C43.75 9.23721 43.311 8.18586 42.5296 7.4107C41.7482 6.63554 40.6884 6.20006 39.5833 6.20006Z" fill="#4694DC"/>
</svg>
