<svg width="48" height="48" viewBox="0 0 48 48" fill="none" xmlns="http://www.w3.org/2000/svg">
<path fill-rule="evenodd" clip-rule="evenodd" d="M42.528 4.54942C42.3422 4.36495 42.1217 4.21861 41.8789 4.11877C41.6361 4.01892 41.3758 3.96753 41.113 3.96753C40.8502 3.96753 40.5899 4.01892 40.3471 4.11877C40.1043 4.21861 39.8837 4.36495 39.698 4.54942L37.954 6.27949C36.8339 5.74927 35.5756 5.57655 34.3524 5.78512C33.1293 5.99369 32.0013 6.57329 31.124 7.44411L9.90998 28.4867L21.224 39.7103L42.44 18.6657C44.288 16.8345 44.678 14.1025 43.612 11.8923L45.358 10.1602C45.7329 9.78818 45.9436 9.28362 45.9436 8.75753C45.9436 8.23144 45.7329 7.72689 45.358 7.35483L42.528 4.54942ZM33.992 21.4335L21.224 34.0995L15.568 28.4867L28.334 15.8226L33.992 21.4354V21.4335ZM37.628 17.8265L39.608 15.8623C39.7939 15.6781 39.9415 15.4592 40.0421 15.2184C40.1428 14.9775 40.1946 14.7194 40.1946 14.4586C40.1946 14.1979 40.1428 13.9397 40.0421 13.6989C39.9415 13.458 39.7939 13.2392 39.608 13.0549L36.782 10.2495C36.5962 10.065 36.3757 9.91871 36.1329 9.81886C35.8901 9.71902 35.6298 9.66763 35.367 9.66763C35.1042 9.66763 34.8439 9.71902 34.6011 9.81886C34.3583 9.91871 34.1377 10.065 33.952 10.2495L31.972 12.2137L37.628 17.8285V17.8265Z" fill="#4694DC"/>
<path d="M4 45.5333L8.244 30.1016L19.556 41.3252L4 45.5333Z" fill="#4694DC"/>
</svg>
